<svg width="1024" height="1024" viewBox="0 0 1024 1024" fill="none" xmlns="http://www.w3.org/2000/svg">
  <!-- Rounded square background with proper macOS app icon proportions -->
  <rect x="64" y="64" width="896" height="896" rx="200" ry="200" fill="url(#gradient)" stroke="#2563eb" stroke-width="20"/>
  
  <!-- Mouse shadow -->
  <path d="M544 232C442 232 362 312 362 414V674C362 776 442 856 544 856C646 856 726 776 726 674V414C726 312 646 232 544 232Z" fill="rgba(0,0,0,0.25)"/>
  
  <!-- Mouse shape -->
  <path d="M512 200C410 200 330 280 330 382V642C330 744 410 824 512 824C614 824 694 744 694 642V382C694 280 614 200 512 200Z" fill="white" stroke="#1e40af" stroke-width="16"/>
  
  <!-- Scroll wheel -->
  <rect x="480" y="300" width="64" height="140" rx="32" fill="#3b82f6" stroke="#1e40af" stroke-width="6"/>
  
  <!-- Scroll indicator lines -->
  <path d="M512 330L512 350" stroke="white" stroke-width="12" stroke-linecap="round"/>
  <path d="M512 360L512 380" stroke="white" stroke-width="12" stroke-linecap="round"/>
  <path d="M512 390L512 410" stroke="white" stroke-width="12" stroke-linecap="round"/>
  
  <!-- Arrow indicating scroll direction -->
  <path d="M512 500L482 530L512 560L542 530Z" fill="#1e40af"/>
  
  <!-- Gradient definition -->
  <defs>
    <linearGradient id="gradient" x1="0%" y1="0%" x2="100%" y2="100%">
      <stop offset="0%" style="stop-color:#dbeafe;stop-opacity:1" />
      <stop offset="100%" style="stop-color:#bfdbfe;stop-opacity:1" />
    </linearGradient>
  </defs>
</svg>
